<?xml version="1.0" encoding="utf-8" standalone="no"?>
<!DOCTYPE svg PUBLIC "-//W3C//DTD SVG 1.1//EN"
  "http://www.w3.org/Graphics/SVG/1.1/DTD/svg11.dtd">
<!-- Created with matplotlib (http://matplotlib.org/) -->
<svg height="345.6pt" version="1.1" viewBox="0 0 460.8 345.6" width="460.8pt" xmlns="http://www.w3.org/2000/svg" xmlns:xlink="http://www.w3.org/1999/xlink">
 <defs>
  <style type="text/css">
*{stroke-linecap:butt;stroke-linejoin:round;}
  </style>
 </defs>
 <g id="figure_1">
  <g id="patch_1">
   <path d="M 0 345.6 
L 460.8 345.6 
L 460.8 0 
L 0 0 
z
" style="fill:#ffffff;"/>
  </g>
  <g id="axes_1">
   <g id="patch_2">
    <path d="M 57.6 307.584 
L 414.72 307.584 
L 414.72 41.472 
L 57.6 41.472 
z
" style="fill:#ffffff;"/>
   </g>
   <g id="matplotlib.axis_1">
    <g id="xtick_1">
     <g id="line2d_1">
      <defs>
       <path d="M 0 0 
L 0 3.5 
" id="m29a8802dd4" style="stroke:#808080;stroke-width:0.8;"/>
      </defs>
      <g>
       <use style="fill:#808080;stroke:#808080;stroke-width:0.8;" x="73.832727" xlink:href="#m29a8802dd4" y="307.584"/>
      </g>
     </g>
     <g id="text_1">
      <!-- 500 -->
      <defs>
       <path d="M 10.796875 72.90625 
L 49.515625 72.90625 
L 49.515625 64.59375 
L 19.828125 64.59375 
L 19.828125 46.734375 
Q 21.96875 47.46875 24.109375 47.828125 
Q 26.265625 48.1875 28.421875 48.1875 
Q 40.625 48.1875 47.75 41.5 
Q 54.890625 34.8125 54.890625 23.390625 
Q 54.890625 11.625 47.5625 5.09375 
Q 40.234375 -1.421875 26.90625 -1.421875 
Q 22.3125 -1.421875 17.546875 -0.640625 
Q 12.796875 0.140625 7.71875 1.703125 
L 7.71875 11.625 
Q 12.109375 9.234375 16.796875 8.0625 
Q 21.484375 6.890625 26.703125 6.890625 
Q 35.15625 6.890625 40.078125 11.328125 
Q 45.015625 15.765625 45.015625 23.390625 
Q 45.015625 31 40.078125 35.4375 
Q 35.15625 39.890625 26.703125 39.890625 
Q 22.75 39.890625 18.8125 39.015625 
Q 14.890625 38.140625 10.796875 36.28125 
z
" id="DejaVuSans-35"/>
       <path d="M 31.78125 66.40625 
Q 24.171875 66.40625 20.328125 58.90625 
Q 16.5 51.421875 16.5 36.375 
Q 16.5 21.390625 20.328125 13.890625 
Q 24.171875 6.390625 31.78125 6.390625 
Q 39.453125 6.390625 43.28125 13.890625 
Q 47.125 21.390625 47.125 36.375 
Q 47.125 51.421875 43.28125 58.90625 
Q 39.453125 66.40625 31.78125 66.40625 
z
M 31.78125 74.21875 
Q 44.046875 74.21875 50.515625 64.515625 
Q 56.984375 54.828125 56.984375 36.375 
Q 56.984375 17.96875 50.515625 8.265625 
Q 44.046875 -1.421875 31.78125 -1.421875 
Q 19.53125 -1.421875 13.0625 8.265625 
Q 6.59375 17.96875 6.59375 36.375 
Q 6.59375 54.828125 13.0625 64.515625 
Q 19.53125 74.21875 31.78125 74.21875 
z
" id="DejaVuSans-30"/>
      </defs>
      <g style="fill:#808080;" transform="translate(64.288977 322.182437)scale(0.1 -0.1)">
       <use xlink:href="#DejaVuSans-35"/>
       <use x="63.623047" xlink:href="#DejaVuSans-30"/>
       <use x="127.246094" xlink:href="#DejaVuSans-30"/>
      </g>
     </g>
    </g>
    <g id="xtick_2">
     <g id="line2d_2">
      <g>
       <use style="fill:#808080;stroke:#808080;stroke-width:0.8;" x="138.893758" xlink:href="#m29a8802dd4" y="307.584"/>
      </g>
     </g>
     <g id="text_2">
      <!-- 600 -->
      <defs>
       <path d="M 33.015625 40.375 
Q 26.375 40.375 22.484375 35.828125 
Q 18.609375 31.296875 18.609375 23.390625 
Q 18.609375 15.53125 22.484375 10.953125 
Q 26.375 6.390625 33.015625 6.390625 
Q 39.65625 6.390625 43.53125 10.953125 
Q 47.40625 15.53125 47.40625 23.390625 
Q 47.40625 31.296875 43.53125 35.828125 
Q 39.65625 40.375 33.015625 40.375 
z
M 52.59375 71.296875 
L 52.59375 62.3125 
Q 48.875 64.0625 45.09375 64.984375 
Q 41.3125 65.921875 37.59375 65.921875 
Q 27.828125 65.921875 22.671875 59.328125 
Q 17.53125 52.734375 16.796875 39.40625 
Q 19.671875 43.65625 24.015625 45.921875 
Q 28.375 48.1875 33.59375 48.1875 
Q 44.578125 48.1875 50.953125 41.515625 
Q 57.328125 34.859375 57.328125 23.390625 
Q 57.328125 12.15625 50.6875 5.359375 
Q 44.046875 -1.421875 33.015625 -1.421875 
Q 20.359375 -1.421875 13.671875 8.265625 
Q 6.984375 17.96875 6.984375 36.375 
Q 6.984375 53.65625 15.1875 63.9375 
Q 23.390625 74.21875 37.203125 74.21875 
Q 40.921875 74.21875 44.703125 73.484375 
Q 48.484375 72.75 52.59375 71.296875 
z
" id="DejaVuSans-36"/>
      </defs>
      <g style="fill:#808080;" transform="translate(129.350008 322.182437)scale(0.1 -0.1)">
       <use xlink:href="#DejaVuSans-36"/>
       <use x="63.623047" xlink:href="#DejaVuSans-30"/>
       <use x="127.246094" xlink:href="#DejaVuSans-30"/>
      </g>
     </g>
    </g>
    <g id="xtick_3">
     <g id="line2d_3">
      <g>
       <use style="fill:#808080;stroke:#808080;stroke-width:0.8;" x="203.95479" xlink:href="#m29a8802dd4" y="307.584"/>
      </g>
     </g>
     <g id="text_3">
      <!-- 700 -->
      <defs>
       <path d="M 8.203125 72.90625 
L 55.078125 72.90625 
L 55.078125 68.703125 
L 28.609375 0 
L 18.3125 0 
L 43.21875 64.59375 
L 8.203125 64.59375 
z
" id="DejaVuSans-37"/>
      </defs>
      <g style="fill:#808080;" transform="translate(194.41104 322.182437)scale(0.1 -0.1)">
       <use xlink:href="#DejaVuSans-37"/>
       <use x="63.623047" xlink:href="#DejaVuSans-30"/>
       <use x="127.246094" xlink:href="#DejaVuSans-30"/>
      </g>
     </g>
    </g>
    <g id="xtick_4">
     <g id="line2d_4">
      <g>
       <use style="fill:#808080;stroke:#808080;stroke-width:0.8;" x="269.015821" xlink:href="#m29a8802dd4" y="307.584"/>
      </g>
     </g>
     <g id="text_4">
      <!-- 800 -->
      <defs>
       <path d="M 31.78125 34.625 
Q 24.75 34.625 20.71875 30.859375 
Q 16.703125 27.09375 16.703125 20.515625 
Q 16.703125 13.921875 20.71875 10.15625 
Q 24.75 6.390625 31.78125 6.390625 
Q 38.8125 6.390625 42.859375 10.171875 
Q 46.921875 13.96875 46.921875 20.515625 
Q 46.921875 27.09375 42.890625 30.859375 
Q 38.875 34.625 31.78125 34.625 
z
M 21.921875 38.8125 
Q 15.578125 40.375 12.03125 44.71875 
Q 8.5 49.078125 8.5 55.328125 
Q 8.5 64.0625 14.71875 69.140625 
Q 20.953125 74.21875 31.78125 74.21875 
Q 42.671875 74.21875 48.875 69.140625 
Q 55.078125 64.0625 55.078125 55.328125 
Q 55.078125 49.078125 51.53125 44.71875 
Q 48 40.375 41.703125 38.8125 
Q 48.828125 37.15625 52.796875 32.3125 
Q 56.78125 27.484375 56.78125 20.515625 
Q 56.78125 9.90625 50.3125 4.234375 
Q 43.84375 -1.421875 31.78125 -1.421875 
Q 19.734375 -1.421875 13.25 4.234375 
Q 6.78125 9.90625 6.78125 20.515625 
Q 6.78125 27.484375 10.78125 32.3125 
Q 14.796875 37.15625 21.921875 38.8125 
z
M 18.3125 54.390625 
Q 18.3125 48.734375 21.84375 45.5625 
Q 25.390625 42.390625 31.78125 42.390625 
Q 38.140625 42.390625 41.71875 45.5625 
Q 45.3125 48.734375 45.3125 54.390625 
Q 45.3125 60.0625 41.71875 63.234375 
Q 38.140625 66.40625 31.78125 66.40625 
Q 25.390625 66.40625 21.84375 63.234375 
Q 18.3125 60.0625 18.3125 54.390625 
z
" id="DejaVuSans-38"/>
      </defs>
      <g style="fill:#808080;" transform="translate(259.472071 322.182437)scale(0.1 -0.1)">
       <use xlink:href="#DejaVuSans-38"/>
       <use x="63.623047" xlink:href="#DejaVuSans-30"/>
       <use x="127.246094" xlink:href="#DejaVuSans-30"/>
      </g>
     </g>
    </g>
    <g id="xtick_5">
     <g id="line2d_5">
      <g>
       <use style="fill:#808080;stroke:#808080;stroke-width:0.8;" x="334.076852" xlink:href="#m29a8802dd4" y="307.584"/>
      </g>
     </g>
     <g id="text_5">
      <!-- 900 -->
      <defs>
       <path d="M 10.984375 1.515625 
L 10.984375 10.5 
Q 14.703125 8.734375 18.5 7.8125 
Q 22.3125 6.890625 25.984375 6.890625 
Q 35.75 6.890625 40.890625 13.453125 
Q 46.046875 20.015625 46.78125 33.40625 
Q 43.953125 29.203125 39.59375 26.953125 
Q 35.25 24.703125 29.984375 24.703125 
Q 19.046875 24.703125 12.671875 31.3125 
Q 6.296875 37.9375 6.296875 49.421875 
Q 6.296875 60.640625 12.9375 67.421875 
Q 19.578125 74.21875 30.609375 74.21875 
Q 43.265625 74.21875 49.921875 64.515625 
Q 56.59375 54.828125 56.59375 36.375 
Q 56.59375 19.140625 48.40625 8.859375 
Q 40.234375 -1.421875 26.421875 -1.421875 
Q 22.703125 -1.421875 18.890625 -0.6875 
Q 15.09375 0.046875 10.984375 1.515625 
z
M 30.609375 32.421875 
Q 37.25 32.421875 41.125 36.953125 
Q 45.015625 41.5 45.015625 49.421875 
Q 45.015625 57.28125 41.125 61.84375 
Q 37.25 66.40625 30.609375 66.40625 
Q 23.96875 66.40625 20.09375 61.84375 
Q 16.21875 57.28125 16.21875 49.421875 
Q 16.21875 41.5 20.09375 36.953125 
Q 23.96875 32.421875 30.609375 32.421875 
z
" id="DejaVuSans-39"/>
      </defs>
      <g style="fill:#808080;" transform="translate(324.533102 322.182437)scale(0.1 -0.1)">
       <use xlink:href="#DejaVuSans-39"/>
       <use x="63.623047" xlink:href="#DejaVuSans-30"/>
       <use x="127.246094" xlink:href="#DejaVuSans-30"/>
      </g>
     </g>
    </g>
    <g id="xtick_6">
     <g id="line2d_6">
      <g>
       <use style="fill:#808080;stroke:#808080;stroke-width:0.8;" x="399.137883" xlink:href="#m29a8802dd4" y="307.584"/>
      </g>
     </g>
     <g id="text_6">
      <!-- 1000 -->
      <defs>
       <path d="M 12.40625 8.296875 
L 28.515625 8.296875 
L 28.515625 63.921875 
L 10.984375 60.40625 
L 10.984375 69.390625 
L 28.421875 72.90625 
L 38.28125 72.90625 
L 38.28125 8.296875 
L 54.390625 8.296875 
L 54.390625 0 
L 12.40625 0 
z
" id="DejaVuSans-31"/>
      </defs>
      <g style="fill:#808080;" transform="translate(386.412883 322.182437)scale(0.1 -0.1)">
       <use xlink:href="#DejaVuSans-31"/>
       <use x="63.623047" xlink:href="#DejaVuSans-30"/>
       <use x="127.246094" xlink:href="#DejaVuSans-30"/>
       <use x="190.869141" xlink:href="#DejaVuSans-30"/>
      </g>
     </g>
    </g>
    <g id="text_7">
     <!-- Execution time of function (seconds) -->
     <defs>
      <path d="M 9.8125 72.90625 
L 55.90625 72.90625 
L 55.90625 64.59375 
L 19.671875 64.59375 
L 19.671875 43.015625 
L 54.390625 43.015625 
L 54.390625 34.71875 
L 19.671875 34.71875 
L 19.671875 8.296875 
L 56.78125 8.296875 
L 56.78125 0 
L 9.8125 0 
z
" id="DejaVuSans-45"/>
      <path d="M 54.890625 54.6875 
L 35.109375 28.078125 
L 55.90625 0 
L 45.3125 0 
L 29.390625 21.484375 
L 13.484375 0 
L 2.875 0 
L 24.125 28.609375 
L 4.6875 54.6875 
L 15.28125 54.6875 
L 29.78125 35.203125 
L 44.28125 54.6875 
z
" id="DejaVuSans-78"/>
      <path d="M 56.203125 29.59375 
L 56.203125 25.203125 
L 14.890625 25.203125 
Q 15.484375 15.921875 20.484375 11.0625 
Q 25.484375 6.203125 34.421875 6.203125 
Q 39.59375 6.203125 44.453125 7.46875 
Q 49.3125 8.734375 54.109375 11.28125 
L 54.109375 2.78125 
Q 49.265625 0.734375 44.1875 -0.34375 
Q 39.109375 -1.421875 33.890625 -1.421875 
Q 20.796875 -1.421875 13.15625 6.1875 
Q 5.515625 13.8125 5.515625 26.8125 
Q 5.515625 40.234375 12.765625 48.109375 
Q 20.015625 56 32.328125 56 
Q 43.359375 56 49.78125 48.890625 
Q 56.203125 41.796875 56.203125 29.59375 
z
M 47.21875 32.234375 
Q 47.125 39.59375 43.09375 43.984375 
Q 39.0625 48.390625 32.421875 48.390625 
Q 24.90625 48.390625 20.390625 44.140625 
Q 15.875 39.890625 15.1875 32.171875 
z
" id="DejaVuSans-65"/>
      <path d="M 48.78125 52.59375 
L 48.78125 44.1875 
Q 44.96875 46.296875 41.140625 47.34375 
Q 37.3125 48.390625 33.40625 48.390625 
Q 24.65625 48.390625 19.8125 42.84375 
Q 14.984375 37.3125 14.984375 27.296875 
Q 14.984375 17.28125 19.8125 11.734375 
Q 24.65625 6.203125 33.40625 6.203125 
Q 37.3125 6.203125 41.140625 7.25 
Q 44.96875 8.296875 48.78125 10.40625 
L 48.78125 2.09375 
Q 45.015625 0.34375 40.984375 -0.53125 
Q 36.96875 -1.421875 32.421875 -1.421875 
Q 20.0625 -1.421875 12.78125 6.34375 
Q 5.515625 14.109375 5.515625 27.296875 
Q 5.515625 40.671875 12.859375 48.328125 
Q 20.21875 56 33.015625 56 
Q 37.15625 56 41.109375 55.140625 
Q 45.0625 54.296875 48.78125 52.59375 
z
" id="DejaVuSans-63"/>
      <path d="M 8.5 21.578125 
L 8.5 54.6875 
L 17.484375 54.6875 
L 17.484375 21.921875 
Q 17.484375 14.15625 20.5 10.265625 
Q 23.53125 6.390625 29.59375 6.390625 
Q 36.859375 6.390625 41.078125 11.03125 
Q 45.3125 15.671875 45.3125 23.6875 
L 45.3125 54.6875 
L 54.296875 54.6875 
L 54.296875 0 
L 45.3125 0 
L 45.3125 8.40625 
Q 42.046875 3.421875 37.71875 1 
Q 33.40625 -1.421875 27.6875 -1.421875 
Q 18.265625 -1.421875 13.375 4.4375 
Q 8.5 10.296875 8.5 21.578125 
z
M 31.109375 56 
z
" id="DejaVuSans-75"/>
      <path d="M 18.3125 70.21875 
L 18.3125 54.6875 
L 36.8125 54.6875 
L 36.8125 47.703125 
L 18.3125 47.703125 
L 18.3125 18.015625 
Q 18.3125 11.328125 20.140625 9.421875 
Q 21.96875 7.515625 27.59375 7.515625 
L 36.8125 7.515625 
L 36.8125 0 
L 27.59375 0 
Q 17.1875 0 13.234375 3.875 
Q 9.28125 7.765625 9.28125 18.015625 
L 9.28125 47.703125 
L 2.6875 47.703125 
L 2.6875 54.6875 
L 9.28125 54.6875 
L 9.28125 70.21875 
z
" id="DejaVuSans-74"/>
      <path d="M 9.421875 54.6875 
L 18.40625 54.6875 
L 18.40625 0 
L 9.421875 0 
z
M 9.421875 75.984375 
L 18.40625 75.984375 
L 18.40625 64.59375 
L 9.421875 64.59375 
z
" id="DejaVuSans-69"/>
      <path d="M 30.609375 48.390625 
Q 23.390625 48.390625 19.1875 42.75 
Q 14.984375 37.109375 14.984375 27.296875 
Q 14.984375 17.484375 19.15625 11.84375 
Q 23.34375 6.203125 30.609375 6.203125 
Q 37.796875 6.203125 41.984375 11.859375 
Q 46.1875 17.53125 46.1875 27.296875 
Q 46.1875 37.015625 41.984375 42.703125 
Q 37.796875 48.390625 30.609375 48.390625 
z
M 30.609375 56 
Q 42.328125 56 49.015625 48.375 
Q 55.71875 40.765625 55.71875 27.296875 
Q 55.71875 13.875 49.015625 6.21875 
Q 42.328125 -1.421875 30.609375 -1.421875 
Q 18.84375 -1.421875 12.171875 6.21875 
Q 5.515625 13.875 5.515625 27.296875 
Q 5.515625 40.765625 12.171875 48.375 
Q 18.84375 56 30.609375 56 
z
" id="DejaVuSans-6f"/>
      <path d="M 54.890625 33.015625 
L 54.890625 0 
L 45.90625 0 
L 45.90625 32.71875 
Q 45.90625 40.484375 42.875 44.328125 
Q 39.84375 48.1875 33.796875 48.1875 
Q 26.515625 48.1875 22.3125 43.546875 
Q 18.109375 38.921875 18.109375 30.90625 
L 18.109375 0 
L 9.078125 0 
L 9.078125 54.6875 
L 18.109375 54.6875 
L 18.109375 46.1875 
Q 21.34375 51.125 25.703125 53.5625 
Q 30.078125 56 35.796875 56 
Q 45.21875 56 50.046875 50.171875 
Q 54.890625 44.34375 54.890625 33.015625 
z
" id="DejaVuSans-6e"/>
      <path id="DejaVuSans-20"/>
      <path d="M 52 44.1875 
Q 55.375 50.25 60.0625 53.125 
Q 64.75 56 71.09375 56 
Q 79.640625 56 84.28125 50.015625 
Q 88.921875 44.046875 88.921875 33.015625 
L 88.921875 0 
L 79.890625 0 
L 79.890625 32.71875 
Q 79.890625 40.578125 77.09375 44.375 
Q 74.3125 48.1875 68.609375 48.1875 
Q 61.625 48.1875 57.5625 43.546875 
Q 53.515625 38.921875 53.515625 30.90625 
L 53.515625 0 
L 44.484375 0 
L 44.484375 32.71875 
Q 44.484375 40.625 41.703125 44.40625 
Q 38.921875 48.1875 33.109375 48.1875 
Q 26.21875 48.1875 22.15625 43.53125 
Q 18.109375 38.875 18.109375 30.90625 
L 18.109375 0 
L 9.078125 0 
L 9.078125 54.6875 
L 18.109375 54.6875 
L 18.109375 46.1875 
Q 21.1875 51.21875 25.484375 53.609375 
Q 29.78125 56 35.6875 56 
Q 41.65625 56 45.828125 52.96875 
Q 50 49.953125 52 44.1875 
z
" id="DejaVuSans-6d"/>
      <path d="M 37.109375 75.984375 
L 37.109375 68.5 
L 28.515625 68.5 
Q 23.6875 68.5 21.796875 66.546875 
Q 19.921875 64.59375 19.921875 59.515625 
L 19.921875 54.6875 
L 34.71875 54.6875 
L 34.71875 47.703125 
L 19.921875 47.703125 
L 19.921875 0 
L 10.890625 0 
L 10.890625 47.703125 
L 2.296875 47.703125 
L 2.296875 54.6875 
L 10.890625 54.6875 
L 10.890625 58.5 
Q 10.890625 67.625 15.140625 71.796875 
Q 19.390625 75.984375 28.609375 75.984375 
z
" id="DejaVuSans-66"/>
      <path d="M 31 75.875 
Q 24.46875 64.65625 21.28125 53.65625 
Q 18.109375 42.671875 18.109375 31.390625 
Q 18.109375 20.125 21.3125 9.0625 
Q 24.515625 -2 31 -13.1875 
L 23.1875 -13.1875 
Q 15.875 -1.703125 12.234375 9.375 
Q 8.59375 20.453125 8.59375 31.390625 
Q 8.59375 42.28125 12.203125 53.3125 
Q 15.828125 64.359375 23.1875 75.875 
z
" id="DejaVuSans-28"/>
      <path d="M 44.28125 53.078125 
L 44.28125 44.578125 
Q 40.484375 46.53125 36.375 47.5 
Q 32.28125 48.484375 27.875 48.484375 
Q 21.1875 48.484375 17.84375 46.4375 
Q 14.5 44.390625 14.5 40.28125 
Q 14.5 37.15625 16.890625 35.375 
Q 19.28125 33.59375 26.515625 31.984375 
L 29.59375 31.296875 
Q 39.15625 29.25 43.1875 25.515625 
Q 47.21875 21.78125 47.21875 15.09375 
Q 47.21875 7.46875 41.1875 3.015625 
Q 35.15625 -1.421875 24.609375 -1.421875 
Q 20.21875 -1.421875 15.453125 -0.5625 
Q 10.6875 0.296875 5.421875 2 
L 5.421875 11.28125 
Q 10.40625 8.6875 15.234375 7.390625 
Q 20.0625 6.109375 24.8125 6.109375 
Q 31.15625 6.109375 34.5625 8.28125 
Q 37.984375 10.453125 37.984375 14.40625 
Q 37.984375 18.0625 35.515625 20.015625 
Q 33.0625 21.96875 24.703125 23.78125 
L 21.578125 24.515625 
Q 13.234375 26.265625 9.515625 29.90625 
Q 5.8125 33.546875 5.8125 39.890625 
Q 5.8125 47.609375 11.28125 51.796875 
Q 16.75 56 26.8125 56 
Q 31.78125 56 36.171875 55.265625 
Q 40.578125 54.546875 44.28125 53.078125 
z
" id="DejaVuSans-73"/>
      <path d="M 45.40625 46.390625 
L 45.40625 75.984375 
L 54.390625 75.984375 
L 54.390625 0 
L 45.40625 0 
L 45.40625 8.203125 
Q 42.578125 3.328125 38.25 0.953125 
Q 33.9375 -1.421875 27.875 -1.421875 
Q 17.96875 -1.421875 11.734375 6.484375 
Q 5.515625 14.40625 5.515625 27.296875 
Q 5.515625 40.1875 11.734375 48.09375 
Q 17.96875 56 27.875 56 
Q 33.9375 56 38.25 53.625 
Q 42.578125 51.265625 45.40625 46.390625 
z
M 14.796875 27.296875 
Q 14.796875 17.390625 18.875 11.75 
Q 22.953125 6.109375 30.078125 6.109375 
Q 37.203125 6.109375 41.296875 11.75 
Q 45.40625 17.390625 45.40625 27.296875 
Q 45.40625 37.203125 41.296875 42.84375 
Q 37.203125 48.484375 30.078125 48.484375 
Q 22.953125 48.484375 18.875 42.84375 
Q 14.796875 37.203125 14.796875 27.296875 
z
" id="DejaVuSans-64"/>
      <path d="M 8.015625 75.875 
L 15.828125 75.875 
Q 23.140625 64.359375 26.78125 53.3125 
Q 30.421875 42.28125 30.421875 31.390625 
Q 30.421875 20.453125 26.78125 9.375 
Q 23.140625 -1.703125 15.828125 -13.1875 
L 8.015625 -13.1875 
Q 14.5 -2 17.703125 9.0625 
Q 20.90625 20.125 20.90625 31.390625 
Q 20.90625 42.671875 17.703125 53.65625 
Q 14.5 64.65625 8.015625 75.875 
z
" id="DejaVuSans-29"/>
     </defs>
     <g transform="translate(144.236562 335.860562)scale(0.1 -0.1)">
      <use xlink:href="#DejaVuSans-45"/>
      <use x="63.183594" xlink:href="#DejaVuSans-78"/>
      <use x="122.316406" xlink:href="#DejaVuSans-65"/>
      <use x="183.839844" xlink:href="#DejaVuSans-63"/>
      <use x="238.820312" xlink:href="#DejaVuSans-75"/>
      <use x="302.199219" xlink:href="#DejaVuSans-74"/>
      <use x="341.408203" xlink:href="#DejaVuSans-69"/>
      <use x="369.191406" xlink:href="#DejaVuSans-6f"/>
      <use x="430.373047" xlink:href="#DejaVuSans-6e"/>
      <use x="493.751953" xlink:href="#DejaVuSans-20"/>
      <use x="525.539062" xlink:href="#DejaVuSans-74"/>
      <use x="564.748047" xlink:href="#DejaVuSans-69"/>
      <use x="592.53125" xlink:href="#DejaVuSans-6d"/>
      <use x="689.943359" xlink:href="#DejaVuSans-65"/>
      <use x="751.466797" xlink:href="#DejaVuSans-20"/>
      <use x="783.253906" xlink:href="#DejaVuSans-6f"/>
      <use x="844.435547" xlink:href="#DejaVuSans-66"/>
      <use x="879.640625" xlink:href="#DejaVuSans-20"/>
      <use x="911.427734" xlink:href="#DejaVuSans-66"/>
      <use x="946.632812" xlink:href="#DejaVuSans-75"/>
      <use x="1010.011719" xlink:href="#DejaVuSans-6e"/>
      <use x="1073.390625" xlink:href="#DejaVuSans-63"/>
      <use x="1128.371094" xlink:href="#DejaVuSans-74"/>
      <use x="1167.580078" xlink:href="#DejaVuSans-69"/>
      <use x="1195.363281" xlink:href="#DejaVuSans-6f"/>
      <use x="1256.544922" xlink:href="#DejaVuSans-6e"/>
      <use x="1319.923828" xlink:href="#DejaVuSans-20"/>
      <use x="1351.710938" xlink:href="#DejaVuSans-28"/>
      <use x="1390.724609" xlink:href="#DejaVuSans-73"/>
      <use x="1442.824219" xlink:href="#DejaVuSans-65"/>
      <use x="1504.347656" xlink:href="#DejaVuSans-63"/>
      <use x="1559.328125" xlink:href="#DejaVuSans-6f"/>
      <use x="1620.509766" xlink:href="#DejaVuSans-6e"/>
      <use x="1683.888672" xlink:href="#DejaVuSans-64"/>
      <use x="1747.365234" xlink:href="#DejaVuSans-73"/>
      <use x="1799.464844" xlink:href="#DejaVuSans-29"/>
     </g>
    </g>
   </g>
   <g id="matplotlib.axis_2">
    <g id="ytick_1">
     <g id="line2d_7">
      <defs>
       <path d="M 0 0 
L -3.5 0 
" id="m261cdca7f7" style="stroke:#808080;stroke-width:0.8;"/>
      </defs>
      <g>
       <use style="fill:#808080;stroke:#808080;stroke-width:0.8;" x="57.6" xlink:href="#m261cdca7f7" y="284.777726"/>
      </g>
     </g>
     <g id="text_8">
      <!-- 0.02 -->
      <defs>
       <path d="M 10.6875 12.40625 
L 21 12.40625 
L 21 0 
L 10.6875 0 
z
" id="DejaVuSans-2e"/>
       <path d="M 19.1875 8.296875 
L 53.609375 8.296875 
L 53.609375 0 
L 7.328125 0 
L 7.328125 8.296875 
Q 12.9375 14.109375 22.625 23.890625 
Q 32.328125 33.6875 34.8125 36.53125 
Q 39.546875 41.84375 41.421875 45.53125 
Q 43.3125 49.21875 43.3125 52.78125 
Q 43.3125 58.59375 39.234375 62.25 
Q 35.15625 65.921875 28.609375 65.921875 
Q 23.96875 65.921875 18.8125 64.3125 
Q 13.671875 62.703125 7.8125 59.421875 
L 7.8125 69.390625 
Q 13.765625 71.78125 18.9375 73 
Q 24.125 74.21875 28.421875 74.21875 
Q 39.75 74.21875 46.484375 68.546875 
Q 53.21875 62.890625 53.21875 53.421875 
Q 53.21875 48.921875 51.53125 44.890625 
Q 49.859375 40.875 45.40625 35.40625 
Q 44.1875 33.984375 37.640625 27.21875 
Q 31.109375 20.453125 19.1875 8.296875 
z
" id="DejaVuSans-32"/>
      </defs>
      <g style="fill:#808080;" transform="translate(28.334375 288.576945)scale(0.1 -0.1)">
       <use xlink:href="#DejaVuSans-30"/>
       <use x="63.623047" xlink:href="#DejaVuSans-2e"/>
       <use x="95.410156" xlink:href="#DejaVuSans-30"/>
       <use x="159.033203" xlink:href="#DejaVuSans-32"/>
      </g>
     </g>
    </g>
    <g id="ytick_2">
     <g id="line2d_8">
      <g>
       <use style="fill:#808080;stroke:#808080;stroke-width:0.8;" x="57.6" xlink:href="#m261cdca7f7" y="254.849444"/>
      </g>
     </g>
     <g id="text_9">
      <!-- 0.04 -->
      <defs>
       <path d="M 37.796875 64.3125 
L 12.890625 25.390625 
L 37.796875 25.390625 
z
M 35.203125 72.90625 
L 47.609375 72.90625 
L 47.609375 25.390625 
L 58.015625 25.390625 
L 58.015625 17.1875 
L 47.609375 17.1875 
L 47.609375 0 
L 37.796875 0 
L 37.796875 17.1875 
L 4.890625 17.1875 
L 4.890625 26.703125 
z
" id="DejaVuSans-34"/>
      </defs>
      <g style="fill:#808080;" transform="translate(28.334375 258.648663)scale(0.1 -0.1)">
       <use xlink:href="#DejaVuSans-30"/>
       <use x="63.623047" xlink:href="#DejaVuSans-2e"/>
       <use x="95.410156" xlink:href="#DejaVuSans-30"/>
       <use x="159.033203" xlink:href="#DejaVuSans-34"/>
      </g>
     </g>
    </g>
    <g id="ytick_3">
     <g id="line2d_9">
      <g>
       <use style="fill:#808080;stroke:#808080;stroke-width:0.8;" x="57.6" xlink:href="#m261cdca7f7" y="224.921162"/>
      </g>
     </g>
     <g id="text_10">
      <!-- 0.06 -->
      <g style="fill:#808080;" transform="translate(28.334375 228.720381)scale(0.1 -0.1)">
       <use xlink:href="#DejaVuSans-30"/>
       <use x="63.623047" xlink:href="#DejaVuSans-2e"/>
       <use x="95.410156" xlink:href="#DejaVuSans-30"/>
       <use x="159.033203" xlink:href="#DejaVuSans-36"/>
      </g>
     </g>
    </g>
    <g id="ytick_4">
     <g id="line2d_10">
      <g>
       <use style="fill:#808080;stroke:#808080;stroke-width:0.8;" x="57.6" xlink:href="#m261cdca7f7" y="194.99288"/>
      </g>
     </g>
     <g id="text_11">
      <!-- 0.08 -->
      <g style="fill:#808080;" transform="translate(28.334375 198.792099)scale(0.1 -0.1)">
       <use xlink:href="#DejaVuSans-30"/>
       <use x="63.623047" xlink:href="#DejaVuSans-2e"/>
       <use x="95.410156" xlink:href="#DejaVuSans-30"/>
       <use x="159.033203" xlink:href="#DejaVuSans-38"/>
      </g>
     </g>
    </g>
    <g id="ytick_5">
     <g id="line2d_11">
      <g>
       <use style="fill:#808080;stroke:#808080;stroke-width:0.8;" x="57.6" xlink:href="#m261cdca7f7" y="165.064598"/>
      </g>
     </g>
     <g id="text_12">
      <!-- 0.10 -->
      <g style="fill:#808080;" transform="translate(28.334375 168.863817)scale(0.1 -0.1)">
       <use xlink:href="#DejaVuSans-30"/>
       <use x="63.623047" xlink:href="#DejaVuSans-2e"/>
       <use x="95.410156" xlink:href="#DejaVuSans-31"/>
       <use x="159.033203" xlink:href="#DejaVuSans-30"/>
      </g>
     </g>
    </g>
    <g id="ytick_6">
     <g id="line2d_12">
      <g>
       <use style="fill:#808080;stroke:#808080;stroke-width:0.8;" x="57.6" xlink:href="#m261cdca7f7" y="135.136316"/>
      </g>
     </g>
     <g id="text_13">
      <!-- 0.12 -->
      <g style="fill:#808080;" transform="translate(28.334375 138.935535)scale(0.1 -0.1)">
       <use xlink:href="#DejaVuSans-30"/>
       <use x="63.623047" xlink:href="#DejaVuSans-2e"/>
       <use x="95.410156" xlink:href="#DejaVuSans-31"/>
       <use x="159.033203" xlink:href="#DejaVuSans-32"/>
      </g>
     </g>
    </g>
    <g id="ytick_7">
     <g id="line2d_13">
      <g>
       <use style="fill:#808080;stroke:#808080;stroke-width:0.8;" x="57.6" xlink:href="#m261cdca7f7" y="105.208034"/>
      </g>
     </g>
     <g id="text_14">
      <!-- 0.14 -->
      <g style="fill:#808080;" transform="translate(28.334375 109.007253)scale(0.1 -0.1)">
       <use xlink:href="#DejaVuSans-30"/>
       <use x="63.623047" xlink:href="#DejaVuSans-2e"/>
       <use x="95.410156" xlink:href="#DejaVuSans-31"/>
       <use x="159.033203" xlink:href="#DejaVuSans-34"/>
      </g>
     </g>
    </g>
    <g id="ytick_8">
     <g id="line2d_14">
      <g>
       <use style="fill:#808080;stroke:#808080;stroke-width:0.8;" x="57.6" xlink:href="#m261cdca7f7" y="75.279752"/>
      </g>
     </g>
     <g id="text_15">
      <!-- 0.16 -->
      <g style="fill:#808080;" transform="translate(28.334375 79.078971)scale(0.1 -0.1)">
       <use xlink:href="#DejaVuSans-30"/>
       <use x="63.623047" xlink:href="#DejaVuSans-2e"/>
       <use x="95.410156" xlink:href="#DejaVuSans-31"/>
       <use x="159.033203" xlink:href="#DejaVuSans-36"/>
      </g>
     </g>
    </g>
    <g id="ytick_9">
     <g id="line2d_15">
      <g>
       <use style="fill:#808080;stroke:#808080;stroke-width:0.8;" x="57.6" xlink:href="#m261cdca7f7" y="45.35147"/>
      </g>
     </g>
     <g id="text_16">
      <!-- 0.18 -->
      <g style="fill:#808080;" transform="translate(28.334375 49.150689)scale(0.1 -0.1)">
       <use xlink:href="#DejaVuSans-30"/>
       <use x="63.623047" xlink:href="#DejaVuSans-2e"/>
       <use x="95.410156" xlink:href="#DejaVuSans-31"/>
       <use x="159.033203" xlink:href="#DejaVuSans-38"/>
      </g>
     </g>
    </g>
    <g id="text_17">
     <!-- Execution time of optimized Time and original Time -->
     <defs>
      <path d="M 18.109375 8.203125 
L 18.109375 -20.796875 
L 9.078125 -20.796875 
L 9.078125 54.6875 
L 18.109375 54.6875 
L 18.109375 46.390625 
Q 20.953125 51.265625 25.265625 53.625 
Q 29.59375 56 35.59375 56 
Q 45.5625 56 51.78125 48.09375 
Q 58.015625 40.1875 58.015625 27.296875 
Q 58.015625 14.40625 51.78125 6.484375 
Q 45.5625 -1.421875 35.59375 -1.421875 
Q 29.59375 -1.421875 25.265625 0.953125 
Q 20.953125 3.328125 18.109375 8.203125 
z
M 48.6875 27.296875 
Q 48.6875 37.203125 44.609375 42.84375 
Q 40.53125 48.484375 33.40625 48.484375 
Q 26.265625 48.484375 22.1875 42.84375 
Q 18.109375 37.203125 18.109375 27.296875 
Q 18.109375 17.390625 22.1875 11.75 
Q 26.265625 6.109375 33.40625 6.109375 
Q 40.53125 6.109375 44.609375 11.75 
Q 48.6875 17.390625 48.6875 27.296875 
z
" id="DejaVuSans-70"/>
      <path d="M 5.515625 54.6875 
L 48.1875 54.6875 
L 48.1875 46.484375 
L 14.40625 7.171875 
L 48.1875 7.171875 
L 48.1875 0 
L 4.296875 0 
L 4.296875 8.203125 
L 38.09375 47.515625 
L 5.515625 47.515625 
z
" id="DejaVuSans-7a"/>
      <path d="M -0.296875 72.90625 
L 61.375 72.90625 
L 61.375 64.59375 
L 35.5 64.59375 
L 35.5 0 
L 25.59375 0 
L 25.59375 64.59375 
L -0.296875 64.59375 
z
" id="DejaVuSans-54"/>
      <path d="M 34.28125 27.484375 
Q 23.390625 27.484375 19.1875 25 
Q 14.984375 22.515625 14.984375 16.5 
Q 14.984375 11.71875 18.140625 8.90625 
Q 21.296875 6.109375 26.703125 6.109375 
Q 34.1875 6.109375 38.703125 11.40625 
Q 43.21875 16.703125 43.21875 25.484375 
L 43.21875 27.484375 
z
M 52.203125 31.203125 
L 52.203125 0 
L 43.21875 0 
L 43.21875 8.296875 
Q 40.140625 3.328125 35.546875 0.953125 
Q 30.953125 -1.421875 24.3125 -1.421875 
Q 15.921875 -1.421875 10.953125 3.296875 
Q 6 8.015625 6 15.921875 
Q 6 25.140625 12.171875 29.828125 
Q 18.359375 34.515625 30.609375 34.515625 
L 43.21875 34.515625 
L 43.21875 35.40625 
Q 43.21875 41.609375 39.140625 45 
Q 35.0625 48.390625 27.6875 48.390625 
Q 23 48.390625 18.546875 47.265625 
Q 14.109375 46.140625 10.015625 43.890625 
L 10.015625 52.203125 
Q 14.9375 54.109375 19.578125 55.046875 
Q 24.21875 56 28.609375 56 
Q 40.484375 56 46.34375 49.84375 
Q 52.203125 43.703125 52.203125 31.203125 
z
" id="DejaVuSans-61"/>
      <path d="M 41.109375 46.296875 
Q 39.59375 47.171875 37.8125 47.578125 
Q 36.03125 48 33.890625 48 
Q 26.265625 48 22.1875 43.046875 
Q 18.109375 38.09375 18.109375 28.8125 
L 18.109375 0 
L 9.078125 0 
L 9.078125 54.6875 
L 18.109375 54.6875 
L 18.109375 46.1875 
Q 20.953125 51.171875 25.484375 53.578125 
Q 30.03125 56 36.53125 56 
Q 37.453125 56 38.578125 55.875 
Q 39.703125 55.765625 41.0625 55.515625 
z
" id="DejaVuSans-72"/>
      <path d="M 45.40625 27.984375 
Q 45.40625 37.75 41.375 43.109375 
Q 37.359375 48.484375 30.078125 48.484375 
Q 22.859375 48.484375 18.828125 43.109375 
Q 14.796875 37.75 14.796875 27.984375 
Q 14.796875 18.265625 18.828125 12.890625 
Q 22.859375 7.515625 30.078125 7.515625 
Q 37.359375 7.515625 41.375 12.890625 
Q 45.40625 18.265625 45.40625 27.984375 
z
M 54.390625 6.78125 
Q 54.390625 -7.171875 48.1875 -13.984375 
Q 42 -20.796875 29.203125 -20.796875 
Q 24.46875 -20.796875 20.265625 -20.09375 
Q 16.0625 -19.390625 12.109375 -17.921875 
L 12.109375 -9.1875 
Q 16.0625 -11.328125 19.921875 -12.34375 
Q 23.78125 -13.375 27.78125 -13.375 
Q 36.625 -13.375 41.015625 -8.765625 
Q 45.40625 -4.15625 45.40625 5.171875 
L 45.40625 9.625 
Q 42.625 4.78125 38.28125 2.390625 
Q 33.9375 0 27.875 0 
Q 17.828125 0 11.671875 7.65625 
Q 5.515625 15.328125 5.515625 27.984375 
Q 5.515625 40.671875 11.671875 48.328125 
Q 17.828125 56 27.875 56 
Q 33.9375 56 38.28125 53.609375 
Q 42.625 51.21875 45.40625 46.390625 
L 45.40625 54.6875 
L 54.390625 54.6875 
z
" id="DejaVuSans-67"/>
      <path d="M 9.421875 75.984375 
L 18.40625 75.984375 
L 18.40625 0 
L 9.421875 0 
z
" id="DejaVuSans-6c"/>
     </defs>
     <g transform="translate(22.254687 304.043625)rotate(-90)scale(0.1 -0.1)">
      <use xlink:href="#DejaVuSans-45"/>
      <use x="63.183594" xlink:href="#DejaVuSans-78"/>
      <use x="122.316406" xlink:href="#DejaVuSans-65"/>
      <use x="183.839844" xlink:href="#DejaVuSans-63"/>
      <use x="238.820312" xlink:href="#DejaVuSans-75"/>
      <use x="302.199219" xlink:href="#DejaVuSans-74"/>
      <use x="341.408203" xlink:href="#DejaVuSans-69"/>
      <use x="369.191406" xlink:href="#DejaVuSans-6f"/>
      <use x="430.373047" xlink:href="#DejaVuSans-6e"/>
      <use x="493.751953" xlink:href="#DejaVuSans-20"/>
      <use x="525.539062" xlink:href="#DejaVuSans-74"/>
      <use x="564.748047" xlink:href="#DejaVuSans-69"/>
      <use x="592.53125" xlink:href="#DejaVuSans-6d"/>
      <use x="689.943359" xlink:href="#DejaVuSans-65"/>
      <use x="751.466797" xlink:href="#DejaVuSans-20"/>
      <use x="783.253906" xlink:href="#DejaVuSans-6f"/>
      <use x="844.435547" xlink:href="#DejaVuSans-66"/>
      <use x="879.640625" xlink:href="#DejaVuSans-20"/>
      <use x="911.427734" xlink:href="#DejaVuSans-6f"/>
      <use x="972.609375" xlink:href="#DejaVuSans-70"/>
      <use x="1036.085938" xlink:href="#DejaVuSans-74"/>
      <use x="1075.294922" xlink:href="#DejaVuSans-69"/>
      <use x="1103.078125" xlink:href="#DejaVuSans-6d"/>
      <use x="1200.490234" xlink:href="#DejaVuSans-69"/>
      <use x="1228.273438" xlink:href="#DejaVuSans-7a"/>
      <use x="1280.763672" xlink:href="#DejaVuSans-65"/>
      <use x="1342.287109" xlink:href="#DejaVuSans-64"/>
      <use x="1405.763672" xlink:href="#DejaVuSans-20"/>
      <use x="1437.550781" xlink:href="#DejaVuSans-54"/>
      <use x="1498.587891" xlink:href="#DejaVuSans-69"/>
      <use x="1526.371094" xlink:href="#DejaVuSans-6d"/>
      <use x="1623.783203" xlink:href="#DejaVuSans-65"/>
      <use x="1685.306641" xlink:href="#DejaVuSans-20"/>
      <use x="1717.09375" xlink:href="#DejaVuSans-61"/>
      <use x="1778.373047" xlink:href="#DejaVuSans-6e"/>
      <use x="1841.751953" xlink:href="#DejaVuSans-64"/>
      <use x="1905.228516" xlink:href="#DejaVuSans-20"/>
      <use x="1937.015625" xlink:href="#DejaVuSans-6f"/>
      <use x="1998.197266" xlink:href="#DejaVuSans-72"/>
      <use x="2039.310547" xlink:href="#DejaVuSans-69"/>
      <use x="2067.09375" xlink:href="#DejaVuSans-67"/>
      <use x="2130.570312" xlink:href="#DejaVuSans-69"/>
      <use x="2158.353516" xlink:href="#DejaVuSans-6e"/>
      <use x="2221.732422" xlink:href="#DejaVuSans-61"/>
      <use x="2283.011719" xlink:href="#DejaVuSans-6c"/>
      <use x="2310.794922" xlink:href="#DejaVuSans-20"/>
      <use x="2342.582031" xlink:href="#DejaVuSans-54"/>
      <use x="2403.619141" xlink:href="#DejaVuSans-69"/>
      <use x="2431.402344" xlink:href="#DejaVuSans-6d"/>
      <use x="2528.814453" xlink:href="#DejaVuSans-65"/>
     </g>
    </g>
   </g>
   <g id="line2d_16">
    <path clip-path="url(#p5eeb2d8bc9)" d="M 73.832727 295.319576 
L 75.133948 295.488 
L 75.784558 285.412979 
L 76.435169 295.137826 
L 77.085779 295.196204 
L 77.736389 294.469771 
L 78.386999 295.026807 
L 79.03761 294.721193 
L 79.68822 293.039968 
L 80.33883 293.898093 
L 80.989441 293.876085 
L 81.640051 294.596592 
L 82.290661 293.5858 
L 82.941272 293.041629 
L 83.591882 292.889496 
L 84.242492 294.04619 
L 84.893103 293.512178 
L 85.543713 293.240145 
L 86.194323 293.220535 
L 86.844934 293.630009 
L 87.495544 293.420981 
L 88.146154 293.036483 
L 88.796764 293.24026 
L 89.447375 292.299245 
L 90.097985 293.004535 
L 90.748595 292.997048 
L 91.399206 292.796795 
L 92.049816 292.398029 
L 93.351037 292.624326 
L 94.001647 291.863966 
L 94.652257 292.501035 
L 95.302868 291.9345 
L 95.953478 291.6869 
L 96.604088 283.522725 
L 97.254698 290.85483 
L 97.905309 291.759734 
L 98.555919 291.866642 
L 99.206529 291.62114 
L 99.85714 290.86064 
L 100.50775 291.49102 
L 102.459581 291.069137 
L 103.110191 291.07838 
L 103.760802 290.906534 
L 104.411412 290.601195 
L 105.712633 290.381352 
L 106.363243 289.945737 
L 107.013853 289.87383 
L 107.664463 289.922404 
L 108.315074 289.73601 
L 108.965684 290.032321 
L 109.616294 286.800454 
L 110.266905 289.71963 
L 110.917515 289.53601 
L 111.568125 288.250523 
L 112.869346 289.067076 
L 114.170567 289.016099 
L 114.821177 288.779136 
L 115.471787 288.742168 
L 116.122398 288.43628 
L 116.773008 287.533233 
L 117.423618 281.206363 
L 118.074228 281.316219 
L 118.724839 288.211463 
L 119.375449 288.093085 
L 120.026059 286.90634 
L 120.67667 282.754564 
L 121.32728 287.718144 
L 121.97789 286.495973 
L 122.628501 283.579077 
L 123.279111 287.235161 
L 123.929721 286.747234 
L 124.580332 285.758235 
L 125.230942 285.983987 
L 125.881552 286.45135 
L 126.532163 279.92387 
L 127.182773 282.630039 
L 127.833383 282.275988 
L 128.483993 285.952989 
L 129.134604 285.958889 
L 129.785214 285.01803 
L 130.435824 285.756107 
L 131.737045 285.710177 
L 132.387655 284.991617 
L 133.038266 285.297848 
L 134.339486 285.097156 
L 134.990097 283.300897 
L 135.640707 284.289036 
L 136.291317 281.442192 
L 136.941927 284.302174 
L 137.592538 283.79517 
L 138.243148 284.307129 
L 138.893758 276.895956 
L 139.544369 284.010945 
L 140.194979 282.840708 
L 140.845589 283.607319 
L 141.4962 283.61157 
L 142.14681 283.413346 
L 142.79742 282.404431 
L 143.448031 282.57122 
L 144.098641 282.441102 
L 144.749251 282.715319 
L 145.399862 278.068095 
L 146.050472 282.570285 
L 146.701082 282.470101 
L 147.351692 282.024705 
L 149.303523 281.565665 
L 149.954134 281.823188 
L 150.604744 280.561687 
L 151.255354 281.375488 
L 151.905965 280.885581 
L 152.556575 273.847073 
L 153.207185 280.044694 
L 153.857796 280.772134 
L 155.159016 280.722854 
L 155.809627 279.51994 
L 156.460237 280.361197 
L 157.110847 280.080995 
L 157.761457 280.110156 
L 158.412068 278.832996 
L 159.062678 279.738794 
L 159.713288 278.942992 
L 160.363899 279.450442 
L 161.014509 279.308156 
L 161.665119 278.435502 
L 162.31573 278.94699 
L 162.96634 278.785695 
L 163.61695 278.148772 
L 164.267561 278.541631 
L 164.918171 278.413836 
L 165.568781 278.164144 
L 166.219392 277.519405 
L 166.870002 277.301093 
L 167.520612 264.882342 
L 168.171222 277.692801 
L 168.821833 276.868477 
L 169.472443 277.407077 
L 170.123053 277.092336 
L 170.773664 276.98705 
L 171.424274 273.804047 
L 172.074884 257.372558 
L 172.725495 275.967283 
L 173.376105 275.452238 
L 174.026715 263.914818 
L 174.677326 275.938037 
L 175.978546 275.625165 
L 176.629156 275.001057 
L 177.279767 275.340813 
L 177.930377 275.314696 
L 178.580987 274.633975 
L 179.231598 273.352452 
L 179.882208 274.288436 
L 180.532818 273.000649 
L 181.183429 274.233934 
L 181.834039 273.819587 
L 182.484649 273.918635 
L 183.13526 273.883068 
L 183.78587 273.718217 
L 184.43648 273.379133 
L 185.087091 273.43689 
L 185.737701 273.253034 
L 186.388311 269.663664 
L 187.038921 267.720817 
L 187.689532 266.382473 
L 188.340142 271.516408 
L 188.990752 272.369876 
L 189.641363 272.087726 
L 190.291973 266.943413 
L 190.942583 271.910272 
L 191.593194 270.500587 
L 192.243804 271.447591 
L 192.894414 270.531647 
L 193.545025 271.258974 
L 194.195635 271.048718 
L 194.846245 270.646703 
L 195.496856 270.600223 
L 196.147466 266.693153 
L 196.798076 268.850913 
L 197.448686 267.072201 
L 198.099297 269.437678 
L 198.749907 261.939286 
L 199.400517 251.21013 
L 200.051128 269.341306 
L 200.701738 265.64909 
L 201.352348 269.050912 
L 202.002959 268.966969 
L 203.304179 263.711558 
L 203.95479 267.44438 
L 204.6054 265.994568 
L 205.25601 267.949065 
L 205.906621 267.503717 
L 206.557231 267.260071 
L 207.207841 267.294206 
L 209.159672 266.83879 
L 209.810282 266.164256 
L 210.460893 266.441262 
L 211.111503 266.297004 
L 211.762113 264.429942 
L 212.412724 264.611431 
L 213.063334 265.685399 
L 213.713944 265.536155 
L 214.364555 265.174864 
L 215.015165 264.193206 
L 215.665775 263.724396 
L 216.316385 264.734007 
L 217.617606 264.520702 
L 218.268216 263.6601 
L 218.918827 263.181256 
L 219.569437 263.913924 
L 220.220047 262.664468 
L 220.870658 263.32228 
L 221.521268 243.662937 
L 222.171878 262.759978 
L 222.822489 261.618063 
L 223.473099 262.524697 
L 224.123709 262.479272 
L 224.77432 262.063976 
L 225.42493 238.30139 
L 226.07554 261.373612 
L 226.72615 261.626171 
L 228.027371 261.344058 
L 228.677981 257.76508 
L 229.328592 253.450193 
L 229.979202 259.361849 
L 230.629812 260.577846 
L 231.931033 260.034742 
L 232.581643 253.591075 
L 233.232254 259.639521 
L 233.882864 257.772044 
L 234.533474 258.49711 
L 235.184085 248.786171 
L 235.834695 258.421312 
L 236.485305 258.530464 
L 237.135915 258.084212 
L 238.437136 258.004259 
L 239.087746 256.129417 
L 239.738357 249.754058 
L 240.388967 256.001442 
L 241.039577 257.180621 
L 241.690188 255.329733 
L 242.340798 256.596905 
L 242.991408 254.502122 
L 243.642019 254.486706 
L 244.292629 241.428086 
L 244.943239 255.7722 
L 245.59385 255.721587 
L 246.24446 254.500405 
L 246.89507 252.659668 
L 247.54568 254.893691 
L 248.196291 252.889182 
L 248.846901 254.385886 
L 251.449342 253.391163 
L 252.099953 253.372693 
L 253.401173 250.902524 
L 254.051784 250.804129 
L 254.702394 252.37329 
L 255.353004 251.442468 
L 256.003615 244.443085 
L 256.654225 250.52708 
L 257.304835 244.013742 
L 257.955445 242.451569 
L 258.606056 251.154244 
L 259.256666 250.882022 
L 259.907276 248.614157 
L 260.557887 250.176033 
L 261.208497 242.072899 
L 261.859107 249.829078 
L 262.509718 249.673723 
L 263.160328 249.388001 
L 263.810938 249.305345 
L 264.461549 248.705711 
L 265.112159 242.27996 
L 265.762769 248.530973 
L 266.413379 248.31855 
L 267.06399 247.91321 
L 267.7146 247.706528 
L 268.36521 247.061921 
L 269.015821 234.482786 
L 269.666431 244.88645 
L 270.317041 244.846579 
L 270.967652 246.616076 
L 271.618262 220.105537 
L 272.268872 244.268258 
L 272.919483 242.262065 
L 273.570093 245.549784 
L 274.220703 240.841781 
L 274.871314 241.293491 
L 275.521924 234.908747 
L 276.172534 244.331477 
L 276.823144 237.843087 
L 277.473755 243.185219 
L 278.124365 243.861468 
L 278.774975 243.721482 
L 279.425586 243.384652 
L 280.076196 240.155684 
L 280.726806 242.843203 
L 281.377417 240.222485 
L 282.028027 241.87045 
L 282.678637 241.43412 
L 283.329248 241.777857 
L 283.979858 233.077828 
L 284.630468 238.428731 
L 285.281079 240.002216 
L 285.931689 240.838628 
L 286.582299 240.734222 
L 287.232909 234.099231 
L 287.88352 237.980694 
L 288.53413 233.083028 
L 289.18474 239.079557 
L 289.835351 235.246088 
L 290.485961 236.931224 
L 291.136571 230.488303 
L 291.787182 238.47827 
L 293.088402 238.008291 
L 293.739013 237.407416 
L 294.389623 235.326238 
L 295.040233 237.167076 
L 295.690844 236.923208 
L 296.341454 236.041199 
L 296.992064 236.390729 
L 297.642674 234.737608 
L 298.293285 233.905119 
L 298.943895 235.156444 
L 299.594505 232.152544 
L 300.245116 232.668383 
L 300.895726 231.890549 
L 301.546336 234.551452 
L 302.196947 233.164063 
L 302.847557 233.873051 
L 303.498167 233.41859 
L 304.148778 231.741153 
L 304.799388 228.41427 
L 305.449998 230.189819 
L 306.100608 203.84722 
L 306.751219 231.884538 
L 307.401829 230.662232 
L 308.052439 231.849089 
L 308.70305 207.272812 
L 309.35366 213.578333 
L 310.00427 215.115929 
L 310.654881 224.794417 
L 311.956101 226.574735 
L 312.606712 225.211191 
L 313.257322 227.50457 
L 313.907932 221.241667 
L 314.558543 228.730461 
L 315.209153 228.880166 
L 315.859763 227.596316 
L 316.510373 227.893328 
L 317.160984 226.345468 
L 317.811594 226.958796 
L 318.462204 225.794724 
L 319.112815 224.238617 
L 319.763425 226.670443 
L 320.414035 226.756396 
L 321.064646 226.569462 
L 321.715256 223.349016 
L 322.365866 223.612726 
L 323.016477 198.862328 
L 323.667087 225.310581 
L 324.317697 223.531373 
L 324.968308 220.893288 
L 325.618918 197.037938 
L 326.269528 221.399455 
L 326.920138 224.126671 
L 327.570749 222.326091 
L 328.221359 221.16414 
L 328.871969 222.748732 
L 329.52258 222.231841 
L 330.17319 221.45941 
L 330.8238 220.941589 
L 331.474411 207.769546 
L 332.125021 219.263582 
L 332.775631 221.060262 
L 333.426242 220.885168 
L 334.076852 213.649189 
L 334.727462 214.905285 
L 335.378073 219.694653 
L 336.028683 218.965941 
L 336.679293 207.283412 
L 337.329903 215.75213 
L 337.980514 218.384836 
L 338.631124 217.88058 
L 339.281734 212.078572 
L 339.932345 215.883757 
L 340.582955 217.952308 
L 341.233565 218.029801 
L 341.884176 215.392688 
L 342.534786 215.803996 
L 343.185396 214.681984 
L 343.836007 205.575924 
L 344.486617 214.785105 
L 345.137227 216.053592 
L 345.787837 214.102778 
L 346.438448 211.227542 
L 347.089058 213.327272 
L 347.739668 214.934642 
L 348.390279 213.884019 
L 349.040889 214.454917 
L 349.691499 212.11919 
L 350.34211 205.359579 
L 350.99272 207.00178 
L 351.64333 212.600484 
L 352.293941 211.576766 
L 352.944551 211.97544 
L 353.595161 210.579833 
L 354.245772 209.990386 
L 354.896382 208.811356 
L 355.546992 210.290593 
L 356.197602 210.047008 
L 356.848213 210.19657 
L 357.498823 194.591675 
L 358.149433 210.229205 
L 358.800044 210.003619 
L 359.450654 209.627106 
L 360.101264 200.982149 
L 360.751875 207.31143 
L 361.402485 208.742787 
L 362.053095 208.406345 
L 362.703706 187.297431 
L 363.354316 205.822445 
L 364.004926 206.003191 
L 364.655537 204.585663 
L 365.306147 204.971681 
L 365.956757 206.494382 
L 366.607367 206.301815 
L 367.257978 205.635575 
L 367.908588 203.483076 
L 368.559198 204.156214 
L 369.209809 199.82213 
L 369.860419 202.469345 
L 370.511029 200.966739 
L 371.16164 203.636232 
L 371.81225 203.279674 
L 372.46286 177.225397 
L 373.113471 202.87743 
L 373.764081 202.543091 
L 374.414691 201.526945 
L 375.065302 198.797408 
L 375.715912 201.138971 
L 376.366522 201.305922 
L 377.017132 192.134552 
L 377.667743 199.595184 
L 378.318353 197.444187 
L 378.968963 198.457174 
L 379.619574 199.144142 
L 380.270184 199.206155 
L 380.920794 197.208878 
L 381.571405 183.182746 
L 382.222015 198.304366 
L 383.523236 197.96578 
L 384.173846 194.876484 
L 384.824456 193.43443 
L 385.475066 192.923972 
L 386.125677 189.728509 
L 386.776287 195.853465 
L 387.426897 193.326645 
L 388.077508 191.483304 
L 388.728118 195.03869 
L 389.378728 194.405484 
L 390.029339 191.402694 
L 390.679949 189.090774 
L 391.330559 193.175304 
L 391.98117 190.742808 
L 393.28239 192.060845 
L 393.933001 192.543117 
L 394.583611 187.987063 
L 395.234221 186.138352 
L 395.884831 191.538403 
L 396.535442 190.95428 
L 397.186052 170.675596 
L 397.836662 189.201962 
L 398.487273 189.370231 
L 398.487273 189.370231 
" style="fill:none;stroke:#ff0000;stroke-linecap:square;stroke-width:1.5;"/>
   </g>
   <g id="line2d_17">
    <path clip-path="url(#p5eeb2d8bc9)" d="M 73.832727 275.472914 
L 74.483338 275.644898 
L 75.133948 294.659045 
L 75.784558 295.205829 
L 76.435169 271.296022 
L 77.085779 274.722134 
L 77.736389 294.71314 
L 78.386999 294.716706 
L 79.03761 274.550731 
L 79.68822 273.969016 
L 80.33883 294.575885 
L 80.989441 294.643036 
L 81.640051 273.495844 
L 82.290661 273.305171 
L 82.941272 292.210928 
L 83.591882 292.260696 
L 84.242492 272.234009 
L 84.893103 272.068513 
L 85.543713 293.960107 
L 86.194323 293.868317 
L 86.844934 271.375406 
L 87.495544 271.910942 
L 88.146154 292.941497 
L 88.796764 293.288771 
L 89.447375 271.254256 
L 90.097985 270.606262 
L 90.748595 292.179306 
L 91.399206 291.985227 
L 92.049816 269.316096 
L 92.700426 269.61623 
L 93.351037 291.705342 
L 94.001647 289.758561 
L 94.652257 268.673647 
L 95.302868 267.825175 
L 95.953478 290.942961 
L 96.604088 288.384283 
L 97.254698 260.510088 
L 97.905309 267.611519 
L 98.555919 290.775533 
L 99.206529 290.697987 
L 99.85714 267.479828 
L 100.50775 266.889695 
L 101.15836 290.429469 
L 101.808971 290.342739 
L 102.459581 266.625358 
L 103.110191 266.089091 
L 103.760802 289.937517 
L 104.411412 289.166958 
L 105.062022 265.693381 
L 105.712633 264.923724 
L 106.363243 289.085769 
L 107.013853 289.020676 
L 107.664463 252.601107 
L 108.315074 264.117643 
L 108.965684 289.417466 
L 109.616294 280.317804 
L 110.266905 262.255115 
L 110.917515 263.450494 
L 111.568125 288.970132 
L 112.218736 289.439958 
L 112.869346 261.485978 
L 113.519956 262.470096 
L 114.170567 288.426854 
L 114.821177 288.232472 
L 115.471787 261.530008 
L 116.122398 262.093586 
L 116.773008 287.288635 
L 117.423618 287.669456 
L 118.074228 242.322414 
L 118.724839 260.058433 
L 119.375449 287.473683 
L 120.026059 287.449887 
L 120.67667 260.212335 
L 121.32728 253.299696 
L 121.97789 286.660456 
L 122.628501 287.466882 
L 123.279111 259.070809 
L 123.929721 257.322744 
L 124.580332 286.730409 
L 125.230942 286.907469 
L 125.881552 257.93818 
L 126.532163 254.38039 
L 127.182773 285.144879 
L 127.833383 282.642147 
L 128.483993 257.187919 
L 129.134604 256.469206 
L 129.785214 285.50415 
L 130.435824 285.490635 
L 131.086435 256.397028 
L 131.737045 255.43274 
L 132.387655 284.997709 
L 133.038266 284.918742 
L 133.688876 255.139696 
L 134.339486 253.679823 
L 134.990097 284.200197 
L 135.640707 283.419555 
L 136.291317 247.400003 
L 136.941927 252.911984 
L 137.592538 283.516026 
L 138.243148 283.717753 
L 138.893758 246.868417 
L 139.544369 251.607735 
L 140.194979 283.422403 
L 140.845589 282.560338 
L 141.4962 250.235658 
L 142.14681 250.976494 
L 142.79742 282.77688 
L 143.448031 282.172069 
L 144.098641 249.358557 
L 144.749251 241.275 
L 145.399862 282.270197 
L 146.050472 281.651685 
L 146.701082 248.839644 
L 147.351692 248.210498 
L 148.002303 281.697214 
L 148.652913 279.75033 
L 149.303523 247.660419 
L 149.954134 246.487769 
L 150.604744 281.257088 
L 151.255354 279.759495 
L 151.905965 245.286589 
L 152.556575 235.219452 
L 153.207185 280.621487 
L 153.857796 279.990399 
L 154.508406 245.515681 
L 155.159016 245.167259 
L 155.809627 280.056289 
L 156.460237 279.380301 
L 157.110847 244.246736 
L 157.761457 244.048236 
L 158.412068 279.047823 
L 159.062678 278.890996 
L 159.713288 240.929938 
L 160.363899 236.951564 
L 161.014509 278.140046 
L 161.665119 277.759958 
L 162.31573 241.387346 
L 162.96634 241.862564 
L 163.61695 277.533632 
L 164.267561 277.932073 
L 164.918171 240.446584 
L 165.568781 240.657265 
L 166.219392 277.640318 
L 166.870002 276.723214 
L 167.520612 234.61094 
L 168.171222 236.562809 
L 168.821833 276.252598 
L 169.472443 276.671693 
L 170.123053 237.129489 
L 170.773664 238.782435 
L 171.424274 276.265398 
L 172.074884 274.805631 
L 172.725495 234.191646 
L 173.376105 236.088517 
L 174.026715 273.096638 
L 174.677326 267.207117 
L 175.327936 235.905444 
L 175.978546 235.00684 
L 176.629156 274.393794 
L 177.279767 274.246857 
L 177.930377 234.479423 
L 178.580987 232.88626 
L 179.231598 273.451227 
L 179.882208 271.788629 
L 180.532818 231.440905 
L 181.183429 205.975718 
L 181.834039 273.554674 
L 182.484649 273.593971 
L 183.13526 232.137789 
L 183.78587 232.449177 
L 184.43648 272.60282 
L 185.087091 272.671779 
L 185.737701 230.957641 
L 186.388311 220.357768 
L 187.038921 271.28217 
L 187.689532 267.648782 
L 188.340142 229.464313 
L 188.990752 228.770484 
L 189.641363 271.407866 
L 190.291973 270.969194 
L 190.942583 223.284935 
L 191.593194 227.316017 
L 192.243804 270.7076 
L 192.894414 269.527242 
L 193.545025 221.014909 
L 194.195635 226.494707 
L 194.846245 269.919085 
L 195.496856 269.655692 
L 196.147466 223.842129 
L 196.798076 224.973668 
L 197.448686 268.854732 
L 198.099297 268.307872 
L 198.749907 181.558967 
L 199.400517 200.707444 
L 200.051128 268.025325 
L 200.701738 268.902035 
L 201.352348 214.195183 
L 202.002959 222.753567 
L 202.653569 268.308611 
L 203.304179 261.501801 
L 203.95479 220.495236 
L 204.6054 213.781276 
L 205.25601 265.337053 
L 205.906621 265.537559 
L 206.557231 217.476702 
L 207.207841 215.028433 
L 207.858451 265.040473 
L 208.509062 265.955491 
L 209.159672 217.260508 
L 209.810282 214.148441 
L 210.460893 264.260771 
L 211.111503 264.147803 
L 211.762113 215.370507 
L 212.412724 214.686426 
L 213.063334 260.526448 
L 213.713944 263.5175 
L 214.364555 212.518102 
L 215.015165 212.083316 
L 215.665775 255.661287 
L 216.316385 257.799361 
L 216.966996 212.537156 
L 217.617606 211.004746 
L 218.268216 262.190528 
L 218.918827 261.583991 
L 219.569437 210.122438 
L 220.220047 207.637976 
L 220.870658 253.414799 
L 221.521268 251.536192 
L 222.171878 208.472943 
L 222.822489 207.285509 
L 223.473099 259.62163 
L 224.123709 260.350937 
L 224.77432 206.724168 
L 225.42493 203.34689 
L 226.07554 259.654157 
L 226.72615 258.932541 
L 227.376761 204.697618 
L 228.027371 205.034502 
L 228.677981 258.88108 
L 229.328592 257.46587 
L 229.979202 198.925835 
L 230.629812 177.32516 
L 231.280423 258.933165 
L 231.931033 258.806286 
L 232.581643 198.218489 
L 233.232254 202.129159 
L 233.882864 257.606344 
L 234.533474 258.012976 
L 235.184085 187.921982 
L 235.834695 201.369287 
L 236.485305 255.807741 
L 237.135915 257.101652 
L 237.786526 199.451808 
L 238.437136 198.694857 
L 239.087746 254.892624 
L 239.738357 252.909517 
L 240.388967 196.704634 
L 241.039577 196.586787 
L 241.690188 253.959716 
L 242.340798 250.31417 
L 242.991408 197.461255 
L 243.642019 196.445718 
L 244.292629 251.640117 
L 244.943239 254.009281 
L 245.59385 194.945827 
L 246.24446 193.26216 
L 246.89507 253.886769 
L 247.54568 254.256331 
L 248.196291 192.970449 
L 248.846901 165.935099 
L 249.497511 251.945859 
L 250.148122 252.781865 
L 250.798732 191.130104 
L 251.449342 191.123556 
L 252.099953 251.582579 
L 252.750563 250.848932 
L 253.401173 169.171556 
L 254.051784 188.164035 
L 254.702394 251.067643 
L 255.353004 250.187433 
L 256.003615 185.747535 
L 256.654225 186.866711 
L 257.304835 241.835515 
L 257.955445 244.039061 
L 258.606056 184.972325 
L 259.256666 183.816883 
L 259.907276 247.829957 
L 260.557887 248.264709 
L 261.208497 175.370192 
L 261.859107 183.058431 
L 262.509718 248.476658 
L 263.160328 247.618609 
L 263.810938 180.708091 
L 264.461549 179.853307 
L 265.112159 243.987531 
L 265.762769 245.247366 
L 266.413379 177.506813 
L 267.06399 178.134018 
L 267.7146 244.332867 
L 268.36521 244.832152 
L 269.015821 176.025201 
L 269.666431 171.812706 
L 270.317041 243.673987 
L 270.967652 243.758913 
L 271.618262 174.369459 
L 272.268872 174.014908 
L 272.919483 240.243788 
L 273.570093 243.117978 
L 274.220703 173.308165 
L 274.871314 173.66236 
L 275.521924 242.902987 
L 276.172534 242.299321 
L 276.823144 165.021732 
L 277.473755 171.117117 
L 278.124365 241.915148 
L 278.774975 240.853472 
L 279.425586 169.163602 
L 280.076196 164.041851 
L 280.726806 234.156733 
L 281.377417 235.016024 
L 282.028027 167.166009 
L 282.678637 166.597204 
L 283.329248 238.737416 
L 283.979858 232.882911 
L 284.630468 164.927215 
L 285.281079 164.347507 
L 285.931689 238.042432 
L 286.582299 232.862346 
L 287.232909 162.903649 
L 287.88352 154.164707 
L 288.53413 237.227161 
L 289.18474 236.87007 
L 289.835351 159.276681 
L 290.485961 159.775135 
L 291.136571 231.714366 
L 291.787182 237.167915 
L 292.437792 155.684578 
L 293.088402 158.158605 
L 293.739013 235.043859 
L 294.389623 233.567564 
L 295.040233 154.070809 
L 295.690844 158.038907 
L 296.341454 234.829292 
L 296.992064 234.784145 
L 297.642674 153.760182 
L 298.293285 145.39937 
L 298.943895 234.399233 
L 299.594505 233.736287 
L 300.245116 142.242418 
L 300.895726 151.41558 
L 301.546336 222.304288 
L 302.196947 225.399835 
L 302.847557 150.629751 
L 303.498167 150.511586 
L 304.148778 231.391065 
L 304.799388 212.843406 
L 305.449998 149.147153 
L 306.100608 148.908415 
L 306.751219 231.114371 
L 307.401829 230.199689 
L 308.052439 128.350346 
L 308.70305 142.45147 
L 309.35366 216.113234 
L 310.00427 217.12081 
L 310.654881 130.288899 
L 311.305491 136.806552 
L 311.956101 222.232682 
L 312.606712 224.948777 
L 313.257322 141.092011 
L 313.907932 132.857973 
L 314.558543 219.748778 
L 315.209153 224.195272 
L 315.859763 138.154909 
L 316.510373 135.582213 
L 317.160984 224.439233 
L 317.811594 224.350034 
L 318.462204 136.937023 
L 319.112815 130.793992 
L 319.763425 222.959558 
L 320.414035 222.871359 
L 321.064646 135.988277 
L 321.715256 134.572695 
L 322.365866 224.173408 
L 323.016477 221.358731 
L 323.667087 128.647942 
L 324.317697 120.749768 
L 324.968308 221.382764 
L 325.618918 219.354268 
L 326.269528 130.837395 
L 326.920138 128.077464 
L 327.570749 221.659455 
L 328.221359 221.033062 
L 328.871969 117.537343 
L 329.52258 126.307736 
L 330.17319 216.951603 
L 330.8238 216.342194 
L 331.474411 99.960288 
L 332.125021 124.217858 
L 332.775631 219.574268 
L 333.426242 219.660921 
L 334.076852 105.354852 
L 334.727462 123.345858 
L 335.378073 217.864408 
L 336.028683 217.258779 
L 336.679293 118.648679 
L 337.329903 120.952993 
L 337.980514 216.103412 
L 338.631124 214.939296 
L 339.281734 117.070581 
L 339.932345 95.248924 
L 340.582955 216.293416 
L 341.233565 216.239986 
L 341.884176 109.707835 
L 342.534786 117.076465 
L 343.185396 214.409025 
L 343.836007 211.904758 
L 344.486617 115.462776 
L 345.137227 103.471239 
L 345.787837 209.992003 
L 346.438448 212.285968 
L 347.089058 114.785243 
L 347.739668 106.202163 
L 348.390279 207.852093 
L 349.040889 212.947399 
L 349.691499 104.839024 
L 350.34211 63.136043 
L 350.99272 210.917189 
L 351.64333 210.742023 
L 352.293941 109.114014 
L 352.944551 105.965754 
L 353.595161 208.10294 
L 354.245772 206.147951 
L 354.896382 87.286198 
L 355.546992 86.686463 
L 356.197602 210.035607 
L 356.848213 207.259573 
L 357.498823 69.70202 
L 358.149433 96.007284 
L 358.800044 207.723063 
L 359.450654 207.672077 
L 360.101264 101.280396 
L 360.751875 101.231303 
L 361.402485 206.771655 
L 362.053095 205.226067 
L 362.703706 92.455461 
L 363.354316 98.61394 
L 364.004926 205.763211 
L 364.655537 205.863393 
L 365.306147 83.743234 
L 365.956757 94.958133 
L 366.607367 204.658132 
L 367.257978 204.385801 
L 367.908588 81.116165 
L 368.559198 94.222729 
L 369.209809 202.313074 
L 369.860419 203.157324 
L 370.511029 77.789647 
L 371.16164 91.537254 
L 371.81225 202.488261 
L 372.46286 199.16552 
L 373.113471 89.525177 
L 373.764081 89.466462 
L 374.414691 201.805824 
L 375.065302 191.818896 
L 375.715912 83.142426 
L 376.366522 86.394959 
L 377.017132 198.682871 
L 377.667743 194.786577 
L 378.318353 82.075694 
L 378.968963 82.490895 
L 379.619574 189.729215 
L 380.270184 197.655144 
L 380.920794 82.013146 
L 381.571405 78.114717 
L 382.222015 195.700604 
L 382.872625 196.162808 
L 383.523236 79.164962 
L 384.173846 55.024089 
L 384.824456 194.08256 
L 385.475066 192.885718 
L 386.125677 75.01301 
L 386.776287 72.968313 
L 387.426897 192.236762 
L 388.077508 193.775704 
L 388.728118 56.916514 
L 389.378728 72.870431 
L 390.029339 193.094171 
L 390.679949 192.002539 
L 391.330559 67.008108 
L 391.98117 69.211727 
L 392.63178 191.479814 
L 393.28239 174.923386 
L 393.933001 66.093175 
L 394.583611 63.452155 
L 395.234221 184.394719 
L 395.884831 189.638513 
L 396.535442 63.485151 
L 397.186052 53.568 
L 397.836662 188.823266 
L 398.487273 187.791709 
L 398.487273 187.791709 
" style="fill:none;stroke:#bfbf00;stroke-linecap:square;stroke-width:1.5;"/>
   </g>
   <g id="patch_3">
    <path d="M 57.6 307.584 
L 57.6 41.472 
" style="fill:none;stroke:#808080;stroke-linecap:square;stroke-linejoin:miter;stroke-width:0.8;"/>
   </g>
   <g id="patch_4">
    <path d="M 414.72 307.584 
L 414.72 41.472 
" style="fill:none;stroke:#808080;stroke-linecap:square;stroke-linejoin:miter;stroke-width:0.8;"/>
   </g>
   <g id="patch_5">
    <path d="M 57.6 307.584 
L 414.72 307.584 
" style="fill:none;stroke:#808080;stroke-linecap:square;stroke-linejoin:miter;stroke-width:0.8;"/>
   </g>
   <g id="patch_6">
    <path d="M 57.6 41.472 
L 414.72 41.472 
" style="fill:none;stroke:#808080;stroke-linecap:square;stroke-linejoin:miter;stroke-width:0.8;"/>
   </g>
  </g>
 </g>
 <defs>
  <clipPath id="p5eeb2d8bc9">
   <rect height="266.112" width="357.12" x="57.6" y="41.472"/>
  </clipPath>
 </defs>
</svg>
